HIERARCHY
ROOT root
{
	OFFSET 0.000000 0.000000 0.000000
	CHANNELS 6 Xposition Yposition Zposition Zrotation Yrotation Xrotation
	JOINT lhip
	{
		OFFSET 0.058581 -0.082280 -0.017664
		CHANNELS 3 Zrotation Yrotation Xrotation
		JOINT lknee
		{
			OFFSET 0.043451 -0.386469 0.008037
			CHANNELS 3 Zrotation Yrotation Xrotation
			JOINT lankle
			{
				OFFSET -0.014790 -0.426874 -0.037428
				CHANNELS 3 Zrotation Yrotation Xrotation
				JOINT ltoe
				{
					OFFSET 0.041054 -0.060286 0.122042
					CHANNELS 3 Zrotation Yrotation Xrotation
					End Site
					{
						OFFSET 0.000000 0.000000 0.000000
					}
				}
			}
		}
	}
	JOINT rhip
	{
		OFFSET -0.060310 -0.090513 -0.013543
		CHANNELS 3 Zrotation Yrotation Xrotation
		JOINT rknee
		{
			OFFSET -0.043257 -0.383688 -0.004843
			CHANNELS 3 Zrotation Yrotation Xrotation
			JOINT rankle
			{
				OFFSET 0.019056 -0.420046 -0.034562
				CHANNELS 3 Zrotation Yrotation Xrotation
				JOINT rtoe
				{
					OFFSET -0.034840 -0.062106 0.130323
					CHANNELS 3 Zrotation Yrotation Xrotation
					End Site
					{
						OFFSET 0.000000 0.000000 0.000000
					}
				}
			}
		}
	}
	JOINT lowerback
	{
		OFFSET 0.004439 0.124404 -0.038385
		CHANNELS 3 Zrotation Yrotation Xrotation
		JOINT upperback
		{
			OFFSET 0.004488 0.137956 0.026820
			CHANNELS 3 Zrotation Yrotation Xrotation
			JOINT chest
			{
				OFFSET -0.002265 0.056032 0.002855
				CHANNELS 3 Zrotation Yrotation Xrotation
				JOINT lowerneck
				{
					OFFSET -0.013390 0.211636 -0.033468
					CHANNELS 3 Zrotation Yrotation Xrotation
					JOINT upperneck
					{
						OFFSET 0.010113 0.088937 0.050410
						CHANNELS 3 Zrotation Yrotation Xrotation
						End Site
						{
							OFFSET 0.000000 0.000000 0.000000
						}
					}
				}
				JOINT lclavicle
				{
					OFFSET 0.071702 0.114000 -0.018898
					CHANNELS 3 Zrotation Yrotation Xrotation
					JOINT lshoulder
					{
						OFFSET 0.122921 0.045205 -0.019046
						CHANNELS 3 Zrotation Yrotation Xrotation
						JOINT lelbow
						{
							OFFSET 0.255332 -0.015649 -0.022946
							CHANNELS 3 Zrotation Yrotation Xrotation
							JOINT lwrist
							{
								OFFSET 0.265709 0.012698 -0.007375
								CHANNELS 3 Zrotation Yrotation Xrotation
								End Site
								{
									OFFSET 0.000000 0.000000 0.000000
								}
							}
						}
					}
				}
				JOINT rclavicle
				{
					OFFSET -0.082954 0.112472 -0.023707
					CHANNELS 3 Zrotation Yrotation Xrotation
					JOINT rshoulder
					{
						OFFSET -0.113228 0.046853 -0.008472
						CHANNELS 3 Zrotation Yrotation Xrotation
						JOINT relbow
						{
							OFFSET -0.260127 -0.014369 -0.031269
							CHANNELS 3 Zrotation Yrotation Xrotation
							JOINT rwrist
							{
								OFFSET -0.269108 0.006794 -0.006027
								CHANNELS 3 Zrotation Yrotation Xrotation
								End Site
								{
									OFFSET 0.000000 0.000000 0.000000
								}
							}
						}
					}
				}
			}
		}
	}
}
MOTION
Frames: 10
Frame Time: 0.033333
-0.451060 -1.715962 0.781586 -132.084484 6.107501 78.747471 3.666863 -1.846636 -47.534195 -4.575650 10.463420 71.442894 8.485058 5.667142 -18.865384 0.000000 -0.000000 0.000000 -4.051738 0.231688 -39.398792 -1.815591 -11.149966 91.660020 -1.326537 -12.513229 -19.812526 0.000000 -0.000000 0.000000 -9.258307 6.461115 49.612164 6.805803 -14.738240 11.047723 6.373931 -6.843956 -5.191436 -1.160671 14.942703 -7.267944 7.026323 4.722293 -14.104174 -21.868422 -33.818299 2.053560 -13.951864 -24.757775 -5.897072 12.825758 -31.893182 -3.380263 4.897608 0.178986 16.687542 27.597346 14.472472 2.052624 44.120194 0.171416 5.855743 -39.863180 45.219121 -40.765322 -4.811611 6.568316 -26.401524 
-0.448984 -1.621855 0.770153 -127.791364 4.728238 79.686020 3.867648 -2.048507 -47.133024 -5.027035 5.425873 77.974419 8.620754 6.806399 -25.897892 0.000000 -0.000000 0.000000 -13.484239 -0.812049 -48.934537 0.750686 -3.712354 78.433479 0.027117 -8.590059 -16.734057 0.000000 -0.000000 0.000000 -7.805861 2.888341 51.845915 4.932283 -13.580802 4.232856 4.255334 -5.978391 -2.835664 -5.398818 13.874076 -2.212039 7.616609 6.409044 -16.673452 -19.370047 -30.108980 0.046052 -13.006843 -25.741985 -7.396495 11.478920 -40.689462 -1.286333 0.361140 -4.159894 15.031848 27.480053 11.920016 5.633019 50.341081 -2.673640 3.760054 -45.093470 45.238026 -46.204648 -5.620761 5.205682 -28.033951 
-0.442490 -1.527534 0.769906 -122.090766 4.246620 81.042169 6.170235 -3.706561 -46.021002 -6.431585 0.206889 80.714395 5.706001 6.601732 -29.147761 0.000000 -0.000000 0.000000 -18.618501 -1.733604 -48.828363 2.526237 8.328115 57.521732 7.703502 -0.638412 -3.249644 0.000000 -0.000000 0.000000 -6.743689 2.923872 50.071685 6.054081 -12.907299 3.768621 5.126749 -5.627303 -1.297526 -9.509055 16.450404 -1.795511 4.785855 8.323928 -17.873247 -14.701741 -26.733298 -0.892944 -14.183386 -26.172533 -5.545140 15.901404 -52.640349 -5.296987 4.725042 -4.452185 3.980902 26.665173 9.903592 5.984512 50.260828 -1.777421 5.180921 -47.407835 46.703183 -50.192257 -7.375716 4.283222 -30.064653 
-0.432467 -1.399265 0.782268 -112.835831 6.241267 82.184421 13.626400 -3.093060 -41.797887 -9.341050 -6.278225 77.412926 2.849376 2.378641 -32.452790 0.000000 -0.000000 0.000000 -21.504862 1.477834 -39.995927 2.046788 16.818420 45.431032 12.622360 3.557940 8.252332 0.000000 -0.000000 0.000000 -5.451262 2.412933 45.915466 8.457741 -12.061240 4.764977 6.536764 -4.219472 -1.409087 -12.385611 24.464292 0.301385 -1.115268 12.851250 -17.220108 -8.873671 -21.669155 -3.695493 -14.987077 -27.792717 -6.745508 18.220003 -62.847354 -7.618622 -6.557905 -10.849087 -8.114828 25.527738 7.890383 6.643071 48.009892 1.665572 6.940347 -49.858387 49.711614 -50.579324 -4.680300 6.919652 -28.707812 
-0.426738 -1.316156 0.788210 -103.709836 5.513489 84.082405 16.215711 -2.660137 -41.496448 -15.824031 -11.854862 73.302335 3.447777 5.011787 -31.748524 0.000000 -0.000000 0.000000 -23.061157 -1.363801 -34.137875 5.296671 14.480894 48.343407 19.110634 -1.293579 -8.035969 0.000000 -0.000000 0.000000 -6.175202 2.604691 42.277897 10.196332 -12.684194 1.565176 6.893960 -3.941725 2.449165 -17.201399 26.976656 -5.320885 -2.811626 14.716503 -15.242863 -1.158449 -20.488938 -10.058334 -19.044669 -31.186003 0.235920 5.399992 -60.615324 -4.107087 54.317523 9.542509 -16.237996 23.584193 7.912061 1.519905 49.182794 -0.817363 10.331321 -50.610121 52.230443 -52.331339 -16.476704 3.074521 -27.646287 
-0.413238 -1.201361 0.800773 -94.161199 3.610833 86.990830 19.714481 -0.401893 -42.262222 -16.331150 -17.251794 64.183489 3.822940 2.907610 -25.674136 0.000000 -0.000000 0.000000 -20.306621 -8.390676 -33.218280 8.734341 11.845381 54.533950 9.083638 -0.303383 -23.411500 0.000000 -0.000000 0.000000 -6.685353 3.929272 37.880132 8.427745 -12.231663 0.620432 6.623704 -4.189346 2.646290 -22.706567 33.535553 -12.669411 -8.428877 17.070252 -15.185865 3.561633 -20.388937 -12.097152 -16.533384 -29.227738 -2.367729 -3.220910 -60.902911 5.563162 39.175699 9.424762 -19.605227 21.894341 8.427813 2.575213 51.942987 0.398299 9.531138 -50.353267 54.176532 -51.965679 -12.049301 4.236047 -29.894666 
-0.399029 -1.096667 0.826524 -86.170825 1.857189 87.186824 20.755652 -1.789558 -40.064579 -7.345886 -13.877778 50.276680 2.668304 2.716574 -14.417237 0.000000 -0.000000 0.000000 -19.895930 -7.552357 -34.243265 5.529628 -1.766186 61.040683 5.137255 -0.327659 -25.761652 0.000000 -0.000000 0.000000 -6.526208 4.750366 37.993042 5.398027 -9.221995 2.810134 5.287593 -3.339681 -1.504733 -27.430267 41.871730 -15.609046 -16.381732 18.994173 -17.986390 2.464395 -19.367020 -9.775017 -15.340797 -27.804853 -6.576317 1.687000 -58.675613 2.104786 -13.704229 -10.411253 -17.876929 20.889172 7.061146 6.187228 52.497431 3.339452 9.166091 -49.355619 54.069060 -51.000989 -3.810898 7.562122 -30.030286 
-0.397816 -1.000508 0.855615 -74.265228 0.900341 87.079282 17.662687 -2.704932 -39.676113 -7.223335 -8.242399 44.793528 2.739201 0.877056 -14.632106 0.000000 -0.000000 0.000000 -16.968008 -11.655704 -29.806874 2.555158 -9.685226 61.868063 1.540451 -1.706640 -29.161237 0.000000 -0.000000 0.000000 -5.296069 4.827231 36.635105 3.258194 -8.782885 2.812858 4.271725 -2.854572 -2.310344 -30.076077 45.684702 -16.488675 -20.016786 25.881468 -18.764394 -0.635710 -18.715804 -9.156324 -17.923519 -25.000339 -6.249025 2.245054 -56.181084 -0.113506 -27.991888 -19.145063 -21.332540 19.421530 5.940336 7.334441 51.527920 1.903058 8.733883 -42.907139 54.720582 -44.769092 4.288247 10.851625 -31.802875 
-0.400561 -0.908052 0.881684 -62.689456 1.385574 88.012107 13.230345 -1.993977 -41.055499 -6.049344 -1.757270 49.224645 4.063219 3.191693 -15.134692 0.000000 -0.000000 0.000000 -12.077052 -14.484502 -27.551588 0.813115 -16.898594 60.245817 -0.377830 -5.126964 -29.640279 0.000000 -0.000000 0.000000 -4.194793 5.595951 34.222389 1.895107 -8.120437 1.116604 4.004845 -2.641248 -2.599554 -29.357424 47.150312 -14.645316 -21.236291 32.326290 -20.344583 -3.775660 -17.116600 -6.918489 -18.437006 -18.819298 -6.253633 -3.322486 -54.531606 0.754045 -29.235676 -21.396490 -25.174257 18.344466 4.070814 8.520495 51.149420 -0.834525 7.608241 -34.271642 54.265984 -36.229503 6.610842 11.047239 -28.255324 
-0.404879 -0.802559 0.914409 -51.312938 3.198724 88.600829 9.883673 -1.130617 -38.157057 -4.990521 2.567095 59.323726 4.842676 5.885863 -14.943743 0.000000 -0.000000 0.000000 -6.244352 -13.354074 -27.544825 1.465793 -20.527074 57.863427 0.952308 -3.282739 -20.645633 0.000000 -0.000000 0.000000 -3.099699 5.622777 32.669371 -0.191512 -5.098850 0.488365 3.175895 -1.255865 -3.360086 -31.797475 47.427729 -17.136422 -23.827783 35.585938 -24.367226 -6.058710 -12.733851 -5.292839 -19.808573 -11.694660 -6.327174 -3.693144 -51.688918 -1.952850 -32.098847 -24.444507 -26.523398 18.158328 1.520294 8.960457 53.080856 -2.316807 6.596093 -26.445803 49.351886 -29.139559 8.800036 10.584641 -26.272898 
